<svg xmlns="http://www.w3.org/2000/svg" viewBox="0 0 106.8 106.8"><path d="M104.8 53.4c0 28.4-23 51.4-51.4 51.4S2 81.8 2 53.4 25 2 53.4 2s51.4 23 51.4 51.4zM12 23v30.5c0 22.9 18.5 41.4 41.4 41.4s41.4-18.5 41.4-41.4V23M22 12.7v40.7c0 17.4 14.1 31.4 31.4 31.4s31.4-14.1 31.4-31.4V12.7M32 6.7v46.8c0 11.8 9.6 21.4 21.4 21.4 11.8 0 21.4-9.6 21.4-21.4V6.7M42 3.3v50.1c0 6.3 5.1 11.4 11.4 11.4s11.4-5.1 11.4-11.4V3.3M53.4 53.4V2" fill="none" stroke="#202121" stroke-width="4" stroke-miterlimit="10"/></svg>